/* XPM */
static char *editor_breakpoint[] = {
/* columns rows colors chars-per-pixel */
"12 12 39 1",
"  c #A10F0F",
". c #A51B1B",
"X c #A82525",
"o c #A82828",
"O c #A92A2A",
"+ c #AA2D2D",
"@ c #AB2F2F",
"# c #B52228",
"$ c #B52229",
"% c #B52329",
"& c #B6232A",
"* c #B7252C",
"= c #BB2A31",
"- c #BC2B32",
"; c #BD2C32",
": c #BF2E34",
"> c #AB3131",
", c #AC3434",
"< c #AE3B3B",
"1 c #C83541",
"2 c #C93643",
"3 c #CA3744",
"4 c #CB3845",
"5 c #CC3A46",
"6 c #CD3A47",
"7 c #CD3C48",
"8 c #CF3D49",
"9 c #CF3F4A",
"0 c #D03F4C",
"q c #D2424E",
"w c #D44450",
"e c #D64652",
"r c #D84854",
"t c #D8C5C5",
"y c #D9C7C7",
"u c #D9CACA",
"i c #DACCCC",
"p c #DBCFCF",
"a c gray88",
/* pixels */
"aai@    Xtaa",
"au@:rrrr:oya",
"u@-wwrwww:ou",
">=wwwwwwwq-+",
".8qqwqqqqqq ",
".700q000000 ",
".6888888880 ",
".4666666666 ",
"<*44444442*o",
"i,%222222*ou",
"ap>%1111%@ua",
"aau@    @uaa"
};
