/* XPM */
static char *editor_breakpoint_hit[] = {
/* columns rows colors chars-per-pixel */
"12 12 57 1",
"  c #A10F0F",
". c #A51B1B",
"X c #A82525",
"o c #A82828",
"O c #A92A2A",
"+ c #AA2D2D",
"@ c #AB2F2F",
"# c #B52228",
"$ c #B52229",
"% c #B52329",
"& c #B6232A",
"* c #B7252C",
"= c #BB2A31",
"- c #BC2B32",
"; c #BD2C32",
": c #BF2E34",
"> c #AB3131",
", c #AC3434",
"< c #AE3B3B",
"1 c #C83541",
"2 c #C93643",
"3 c #CA3744",
"4 c #CA3845",
"5 c #CB3845",
"6 c #CC3A46",
"7 c #CD3A47",
"8 c #CD3C48",
"9 c #CF3D49",
"0 c #CF3F4A",
"q c #D03F4C",
"w c #D2424E",
"e c #D44450",
"r c #D64652",
"t c #D64854",
"y c #D84854",
"u c #D14F5B",
"i c #D95863",
"p c #D7616C",
"a c #DB6871",
"s c #DC6A73",
"d c #D96B74",
"f c #E2878F",
"g c #E49198",
"h c #D8C5C5",
"j c #D9C7C7",
"k c #D9CACA",
"l c #DACCCC",
"z c #DBCFCF",
"x c #EEC0C4",
"c c #F1C1C5",
"v c gray88",
"b c #FAECEE",
"n c #FBEDEE",
"m c #FBEFF0",
"M c #FEFAFB",
"N c #FEFDFD",
"B c gray100",
/* pixels */
"vvl@    ohvv",
"vk@:yyyy:ojv",
"k@-eyetee;oj",
">=eeeeciee=@",
".9wasannaww ",
".80BBBBBMfw ",
".89BBBBBBg9 ",
".37pppnmd77 ",
"<&3525xu55*o",
"z,&322522%Oj",
"vl>&2122%@kv",
"vvk@    @kvv"
};
